<mxfile host="app.diagrams.net" agent="Mozilla/5.0 (Windows NT 10.0; Win64; x64) AppleWebKit/537.36 (KHTML, like Gecko) Chrome/134.0.0.0 Safari/537.36" version="26.1.1">
  <diagram name="第 1 页" id="HHV4tudFNx8_69O6m0_W">
    <mxGraphModel dx="1434" dy="738" grid="1" gridSize="10" guides="1" tooltips="1" connect="1" arrows="1" fold="1" page="1" pageScale="1" pageWidth="827" pageHeight="1169" math="0" shadow="0">
      <root>
        <mxCell id="0" />
        <mxCell id="1" parent="0" />
        <mxCell id="EHueAm8V6OURwo8DUmdf-1" value="StarRocks的Shuffle Join实现原理" style="text;html=1;strokeColor=none;fillColor=none;align=center;verticalAlign=middle;whiteSpace=wrap;rounded=0;fontSize=24;fontStyle=1" vertex="1" parent="1">
          <mxGeometry x="174" y="60" width="500" height="40" as="geometry" />
        </mxCell>
        <mxCell id="EHueAm8V6OURwo8DUmdf-2" value="Shuffle Join：两张大表按Join Key哈希分布到多个节点，适用于两表都较大的场景" style="text;html=1;strokeColor=none;fillColor=none;align=center;verticalAlign=middle;whiteSpace=wrap;rounded=0;fontSize=16;fontStyle=1" vertex="1" parent="1">
          <mxGeometry x="130" y="110" width="590" height="30" as="geometry" />
        </mxCell>
        <mxCell id="EHueAm8V6OURwo8DUmdf-3" value="初始数据分布" style="text;html=1;strokeColor=none;fillColor=none;align=center;verticalAlign=middle;whiteSpace=wrap;rounded=0;fontSize=18;fontStyle=1" vertex="1" parent="1">
          <mxGeometry x="130" y="150" width="590" height="30" as="geometry" />
        </mxCell>
        <mxCell id="EHueAm8V6OURwo8DUmdf-4" value="表A (大表)" style="text;html=1;strokeColor=none;fillColor=none;align=center;verticalAlign=middle;whiteSpace=wrap;rounded=0;fontSize=14;fontStyle=1" vertex="1" parent="1">
          <mxGeometry x="210" y="190" width="100" height="30" as="geometry" />
        </mxCell>
        <mxCell id="EHueAm8V6OURwo8DUmdf-5" value="分片 A1" style="shape=cylinder3;whiteSpace=wrap;html=1;boundedLbl=1;backgroundOutline=1;size=15;fillColor=#dae8fc;strokeColor=#6c8ebf;fontSize=12;fontStyle=1" vertex="1" parent="1">
          <mxGeometry x="170" y="230" width="80" height="60" as="geometry" />
        </mxCell>
        <mxCell id="EHueAm8V6OURwo8DUmdf-6" value="分片 A2" style="shape=cylinder3;whiteSpace=wrap;html=1;boundedLbl=1;backgroundOutline=1;size=15;fillColor=#dae8fc;strokeColor=#6c8ebf;fontSize=12;fontStyle=1" vertex="1" parent="1">
          <mxGeometry x="220" y="230" width="80" height="60" as="geometry" />
        </mxCell>
        <mxCell id="EHueAm8V6OURwo8DUmdf-7" value="分片 A3" style="shape=cylinder3;whiteSpace=wrap;html=1;boundedLbl=1;backgroundOutline=1;size=15;fillColor=#dae8fc;strokeColor=#6c8ebf;fontSize=12;fontStyle=1" vertex="1" parent="1">
          <mxGeometry x="270" y="230" width="80" height="60" as="geometry" />
        </mxCell>
        <mxCell id="EHueAm8V6OURwo8DUmdf-8" value="表B (大表)" style="text;html=1;strokeColor=none;fillColor=none;align=center;verticalAlign=middle;whiteSpace=wrap;rounded=0;fontSize=14;fontStyle=1" vertex="1" parent="1">
          <mxGeometry x="530" y="190" width="100" height="30" as="geometry" />
        </mxCell>
        <mxCell id="EHueAm8V6OURwo8DUmdf-9" value="分片 B1" style="shape=cylinder3;whiteSpace=wrap;html=1;boundedLbl=1;backgroundOutline=1;size=15;fillColor=#d5e8d4;strokeColor=#82b366;fontSize=12;fontStyle=1" vertex="1" parent="1">
          <mxGeometry x="490" y="230" width="80" height="60" as="geometry" />
        </mxCell>
        <mxCell id="EHueAm8V6OURwo8DUmdf-10" value="分片 B2" style="shape=cylinder3;whiteSpace=wrap;html=1;boundedLbl=1;backgroundOutline=1;size=15;fillColor=#d5e8d4;strokeColor=#82b366;fontSize=12;fontStyle=1" vertex="1" parent="1">
          <mxGeometry x="540" y="230" width="80" height="60" as="geometry" />
        </mxCell>
        <mxCell id="EHueAm8V6OURwo8DUmdf-11" value="分片 B3" style="shape=cylinder3;whiteSpace=wrap;html=1;boundedLbl=1;backgroundOutline=1;size=15;fillColor=#d5e8d4;strokeColor=#82b366;fontSize=12;fontStyle=1" vertex="1" parent="1">
          <mxGeometry x="590" y="230" width="80" height="60" as="geometry" />
        </mxCell>
        <mxCell id="EHueAm8V6OURwo8DUmdf-12" value="Shuffle过程 (按Join Key哈希分布)" style="text;html=1;strokeColor=none;fillColor=none;align=center;verticalAlign=middle;whiteSpace=wrap;rounded=0;fontSize=18;fontStyle=1" vertex="1" parent="1">
          <mxGeometry x="130" y="320" width="590" height="30" as="geometry" />
        </mxCell>
        <mxCell id="EHueAm8V6OURwo8DUmdf-13" value="" style="endArrow=classic;html=1;rounded=0;exitX=0.5;exitY=1;exitDx=0;exitDy=0;entryX=0.5;entryY=0;entryDx=0;entryDy=0;strokeWidth=3;fillColor=#f8cecc;strokeColor=#b85450;" edge="1" source="EHueAm8V6OURwo8DUmdf-12" target="EHueAm8V6OURwo8DUmdf-14" parent="1">
          <mxGeometry width="50" height="50" relative="1" as="geometry">
            <mxPoint x="400" y="490" as="sourcePoint" />
            <mxPoint x="450" y="440" as="targetPoint" />
          </mxGeometry>
        </mxCell>
        <mxCell id="EHueAm8V6OURwo8DUmdf-14" value="哈希函数: hash(Join Key) % 分区数" style="rounded=1;whiteSpace=wrap;html=1;fillColor=#f8cecc;strokeColor=#b85450;fontSize=14;fontStyle=1" vertex="1" parent="1">
          <mxGeometry x="310" y="380" width="230" height="40" as="geometry" />
        </mxCell>
        <mxCell id="EHueAm8V6OURwo8DUmdf-15" value="表A在节点1上的数据&#xa;(Join Key哈希值为1)" style="shape=cylinder3;whiteSpace=wrap;html=1;boundedLbl=1;backgroundOutline=1;size=15;fillColor=#dae8fc;strokeColor=#6c8ebf;fontSize=12;fontStyle=1" vertex="1" parent="1">
          <mxGeometry x="130" y="450" width="150" height="60" as="geometry" />
        </mxCell>
        <mxCell id="EHueAm8V6OURwo8DUmdf-16" value="表A在节点2上的数据&#xa;(Join Key哈希值为2)" style="shape=cylinder3;whiteSpace=wrap;html=1;boundedLbl=1;backgroundOutline=1;size=15;fillColor=#dae8fc;strokeColor=#6c8ebf;fontSize=12;fontStyle=1" vertex="1" parent="1">
          <mxGeometry x="130" y="530" width="150" height="60" as="geometry" />
        </mxCell>
        <mxCell id="EHueAm8V6OURwo8DUmdf-17" value="表A在节点3上的数据&#xa;(Join Key哈希值为3)" style="shape=cylinder3;whiteSpace=wrap;html=1;boundedLbl=1;backgroundOutline=1;size=15;fillColor=#dae8fc;strokeColor=#6c8ebf;fontSize=12;fontStyle=1" vertex="1" parent="1">
          <mxGeometry x="130" y="610" width="150" height="60" as="geometry" />
        </mxCell>
        <mxCell id="EHueAm8V6OURwo8DUmdf-18" value="表B在节点1上的数据&#xa;(Join Key哈希值为1)" style="shape=cylinder3;whiteSpace=wrap;html=1;boundedLbl=1;backgroundOutline=1;size=15;fillColor=#d5e8d4;strokeColor=#82b366;fontSize=12;fontStyle=1" vertex="1" parent="1">
          <mxGeometry x="570" y="450" width="150" height="60" as="geometry" />
        </mxCell>
        <mxCell id="EHueAm8V6OURwo8DUmdf-19" value="表B在节点2上的数据&#xa;(Join Key哈希值为2)" style="shape=cylinder3;whiteSpace=wrap;html=1;boundedLbl=1;backgroundOutline=1;size=15;fillColor=#d5e8d4;strokeColor=#82b366;fontSize=12;fontStyle=1" vertex="1" parent="1">
          <mxGeometry x="570" y="530" width="150" height="60" as="geometry" />
        </mxCell>
        <mxCell id="EHueAm8V6OURwo8DUmdf-20" value="表B在节点3上的数据&#xa;(Join Key哈希值为3)" style="shape=cylinder3;whiteSpace=wrap;html=1;boundedLbl=1;backgroundOutline=1;size=15;fillColor=#d5e8d4;strokeColor=#82b366;fontSize=12;fontStyle=1" vertex="1" parent="1">
          <mxGeometry x="570" y="610" width="150" height="60" as="geometry" />
        </mxCell>
        <mxCell id="EHueAm8V6OURwo8DUmdf-21" value="" style="endArrow=classic;html=1;rounded=1;exitX=0.5;exitY=1;exitDx=0;exitDy=0;exitPerimeter=0;entryX=0.5;entryY=0;entryDx=0;entryDy=0;jumpStyle=arc;jumpSize=6;edgeStyle=orthogonalEdgeStyle;fillColor=#dae8fc;strokeColor=#6c8ebf;strokeWidth=2;dashed=1;" edge="1" source="EHueAm8V6OURwo8DUmdf-5" target="EHueAm8V6OURwo8DUmdf-14" parent="1">
          <mxGeometry width="50" height="50" relative="1" as="geometry">
            <mxPoint x="400" y="490" as="sourcePoint" />
            <mxPoint x="450" y="440" as="targetPoint" />
            <Array as="points">
              <mxPoint x="210" y="340" />
              <mxPoint x="350" y="340" />
              <mxPoint x="350" y="360" />
              <mxPoint x="425" y="360" />
            </Array>
          </mxGeometry>
        </mxCell>
        <mxCell id="EHueAm8V6OURwo8DUmdf-22" value="" style="endArrow=classic;html=1;rounded=1;exitX=0.5;exitY=1;exitDx=0;exitDy=0;exitPerimeter=0;entryX=0.5;entryY=0;entryDx=0;entryDy=0;jumpStyle=arc;jumpSize=6;edgeStyle=orthogonalEdgeStyle;fillColor=#dae8fc;strokeColor=#6c8ebf;strokeWidth=2;dashed=1;" edge="1" source="EHueAm8V6OURwo8DUmdf-6" target="EHueAm8V6OURwo8DUmdf-14" parent="1">
          <mxGeometry width="50" height="50" relative="1" as="geometry">
            <mxPoint x="220" y="300" as="sourcePoint" />
            <mxPoint x="435" y="390" as="targetPoint" />
            <Array as="points">
              <mxPoint x="260" y="340" />
              <mxPoint x="425" y="340" />
            </Array>
          </mxGeometry>
        </mxCell>
        <mxCell id="EHueAm8V6OURwo8DUmdf-23" value="" style="endArrow=classic;html=1;rounded=1;exitX=0.5;exitY=1;exitDx=0;exitDy=0;exitPerimeter=0;entryX=0.5;entryY=0;entryDx=0;entryDy=0;jumpStyle=arc;jumpSize=6;edgeStyle=orthogonalEdgeStyle;fillColor=#dae8fc;strokeColor=#6c8ebf;strokeWidth=2;dashed=1;" edge="1" source="EHueAm8V6OURwo8DUmdf-7" target="EHueAm8V6OURwo8DUmdf-14" parent="1">
          <mxGeometry width="50" height="50" relative="1" as="geometry">
            <mxPoint x="270" y="300" as="sourcePoint" />
            <mxPoint x="435" y="390" as="targetPoint" />
            <Array as="points">
              <mxPoint x="310" y="340" />
              <mxPoint x="425" y="340" />
            </Array>
          </mxGeometry>
        </mxCell>
        <mxCell id="EHueAm8V6OURwo8DUmdf-24" value="" style="endArrow=classic;html=1;rounded=1;exitX=0.5;exitY=1;exitDx=0;exitDy=0;exitPerimeter=0;entryX=0.5;entryY=0;entryDx=0;entryDy=0;jumpStyle=arc;jumpSize=6;edgeStyle=orthogonalEdgeStyle;fillColor=#d5e8d4;strokeColor=#82b366;strokeWidth=2;dashed=1;" edge="1" source="EHueAm8V6OURwo8DUmdf-9" target="EHueAm8V6OURwo8DUmdf-14" parent="1">
          <mxGeometry width="50" height="50" relative="1" as="geometry">
            <mxPoint x="320" y="300" as="sourcePoint" />
            <mxPoint x="435" y="390" as="targetPoint" />
            <Array as="points">
              <mxPoint x="530" y="340" />
              <mxPoint x="425" y="340" />
            </Array>
          </mxGeometry>
        </mxCell>
        <mxCell id="EHueAm8V6OURwo8DUmdf-25" value="" style="endArrow=classic;html=1;rounded=1;exitX=0.5;exitY=1;exitDx=0;exitDy=0;exitPerimeter=0;entryX=0.5;entryY=0;entryDx=0;entryDy=0;jumpStyle=arc;jumpSize=6;edgeStyle=orthogonalEdgeStyle;fillColor=#d5e8d4;strokeColor=#82b366;strokeWidth=2;dashed=1;" edge="1" source="EHueAm8V6OURwo8DUmdf-10" target="EHueAm8V6OURwo8DUmdf-14" parent="1">
          <mxGeometry width="50" height="50" relative="1" as="geometry">
            <mxPoint x="540" y="300" as="sourcePoint" />
            <mxPoint x="435" y="390" as="targetPoint" />
            <Array as="points">
              <mxPoint x="580" y="340" />
              <mxPoint x="425" y="340" />
            </Array>
          </mxGeometry>
        </mxCell>
        <mxCell id="EHueAm8V6OURwo8DUmdf-26" value="" style="endArrow=classic;html=1;rounded=1;exitX=0.5;exitY=1;exitDx=0;exitDy=0;exitPerimeter=0;entryX=0.5;entryY=0;entryDx=0;entryDy=0;jumpStyle=arc;jumpSize=6;edgeStyle=orthogonalEdgeStyle;fillColor=#d5e8d4;strokeColor=#82b366;strokeWidth=2;dashed=1;" edge="1" source="EHueAm8V6OURwo8DUmdf-11" target="EHueAm8V6OURwo8DUmdf-14" parent="1">
          <mxGeometry width="50" height="50" relative="1" as="geometry">
            <mxPoint x="590" y="300" as="sourcePoint" />
            <mxPoint x="435" y="390" as="targetPoint" />
            <Array as="points">
              <mxPoint x="630" y="340" />
              <mxPoint x="500" y="340" />
              <mxPoint x="500" y="360" />
              <mxPoint x="425" y="360" />
            </Array>
          </mxGeometry>
        </mxCell>
        <mxCell id="EHueAm8V6OURwo8DUmdf-27" value="" style="endArrow=classic;html=1;rounded=1;exitX=0;exitY=0.5;exitDx=0;exitDy=0;entryX=1;entryY=0;entryDx=0;entryDy=0;entryPerimeter=0;jumpStyle=arc;jumpSize=6;edgeStyle=orthogonalEdgeStyle;fillColor=#f8cecc;strokeColor=#b85450;strokeWidth=1;" edge="1" source="EHueAm8V6OURwo8DUmdf-14" target="EHueAm8V6OURwo8DUmdf-15" parent="1">
          <mxGeometry width="50" height="50" relative="1" as="geometry">
            <mxPoint x="400" y="490" as="sourcePoint" />
            <mxPoint x="450" y="440" as="targetPoint" />
          </mxGeometry>
        </mxCell>
        <mxCell id="EHueAm8V6OURwo8DUmdf-28" value="" style="endArrow=classic;html=1;rounded=1;exitX=0;exitY=0.5;exitDx=0;exitDy=0;entryX=1;entryY=0;entryDx=0;entryDy=0;entryPerimeter=0;jumpStyle=arc;jumpSize=6;edgeStyle=orthogonalEdgeStyle;fillColor=#f8cecc;strokeColor=#b85450;strokeWidth=1;" edge="1" source="EHueAm8V6OURwo8DUmdf-14" target="EHueAm8V6OURwo8DUmdf-16" parent="1">
          <mxGeometry width="50" height="50" relative="1" as="geometry">
            <mxPoint x="320" y="410" as="sourcePoint" />
            <mxPoint x="270" y="463" as="targetPoint" />
            <Array as="points">
              <mxPoint x="290" y="400" />
              <mxPoint x="290" y="530" />
              <mxPoint x="265" y="530" />
            </Array>
          </mxGeometry>
        </mxCell>
        <mxCell id="EHueAm8V6OURwo8DUmdf-29" value="" style="endArrow=classic;html=1;rounded=1;exitX=0;exitY=0.5;exitDx=0;exitDy=0;entryX=1;entryY=0;entryDx=0;entryDy=0;entryPerimeter=0;jumpStyle=arc;jumpSize=6;edgeStyle=orthogonalEdgeStyle;fillColor=#f8cecc;strokeColor=#b85450;strokeWidth=1;" edge="1" source="EHueAm8V6OURwo8DUmdf-14" target="EHueAm8V6OURwo8DUmdf-17" parent="1">
          <mxGeometry width="50" height="50" relative="1" as="geometry">
            <mxPoint x="320" y="410" as="sourcePoint" />
            <mxPoint x="270" y="538" as="targetPoint" />
            <Array as="points">
              <mxPoint x="290" y="400" />
              <mxPoint x="290" y="610" />
              <mxPoint x="265" y="610" />
            </Array>
          </mxGeometry>
        </mxCell>
        <mxCell id="EHueAm8V6OURwo8DUmdf-30" value="" style="endArrow=classic;html=1;rounded=1;exitX=1;exitY=0.5;exitDx=0;exitDy=0;entryX=0;entryY=0;entryDx=0;entryDy=0;entryPerimeter=0;jumpStyle=arc;jumpSize=6;edgeStyle=orthogonalEdgeStyle;fillColor=#f8cecc;strokeColor=#b85450;strokeWidth=1;" edge="1" source="EHueAm8V6OURwo8DUmdf-14" target="EHueAm8V6OURwo8DUmdf-18" parent="1">
          <mxGeometry width="50" height="50" relative="1" as="geometry">
            <mxPoint x="320" y="410" as="sourcePoint" />
            <mxPoint x="270" y="613" as="targetPoint" />
            <Array as="points">
              <mxPoint x="560" y="400" />
              <mxPoint x="560" y="450" />
              <mxPoint x="585" y="450" />
            </Array>
          </mxGeometry>
        </mxCell>
        <mxCell id="EHueAm8V6OURwo8DUmdf-31" value="" style="endArrow=classic;html=1;rounded=1;exitX=1;exitY=0.5;exitDx=0;exitDy=0;entryX=0;entryY=0;entryDx=0;entryDy=0;entryPerimeter=0;jumpStyle=arc;jumpSize=6;edgeStyle=orthogonalEdgeStyle;fillColor=#f8cecc;strokeColor=#b85450;strokeWidth=1;" edge="1" source="EHueAm8V6OURwo8DUmdf-14" target="EHueAm8V6OURwo8DUmdf-19" parent="1">
          <mxGeometry width="50" height="50" relative="1" as="geometry">
            <mxPoint x="550" y="410" as="sourcePoint" />
            <mxPoint x="585" y="463" as="targetPoint" />
            <Array as="points">
              <mxPoint x="560" y="400" />
              <mxPoint x="560" y="530" />
              <mxPoint x="585" y="530" />
            </Array>
          </mxGeometry>
        </mxCell>
        <mxCell id="EHueAm8V6OURwo8DUmdf-32" value="" style="endArrow=classic;html=1;rounded=1;exitX=1;exitY=0.5;exitDx=0;exitDy=0;entryX=0;entryY=0;entryDx=0;entryDy=0;entryPerimeter=0;jumpStyle=arc;jumpSize=6;edgeStyle=orthogonalEdgeStyle;fillColor=#f8cecc;strokeColor=#b85450;strokeWidth=1;" edge="1" source="EHueAm8V6OURwo8DUmdf-14" target="EHueAm8V6OURwo8DUmdf-20" parent="1">
          <mxGeometry width="50" height="50" relative="1" as="geometry">
            <mxPoint x="550" y="410" as="sourcePoint" />
            <mxPoint x="585" y="538" as="targetPoint" />
            <Array as="points">
              <mxPoint x="560" y="400" />
              <mxPoint x="560" y="610" />
              <mxPoint x="585" y="610" />
            </Array>
          </mxGeometry>
        </mxCell>
        <mxCell id="EHueAm8V6OURwo8DUmdf-33" value="本地Join执行" style="text;html=1;strokeColor=none;fillColor=none;align=center;verticalAlign=middle;whiteSpace=wrap;rounded=0;fontSize=18;fontStyle=1" vertex="1" parent="1">
          <mxGeometry x="130" y="690" width="590" height="30" as="geometry" />
        </mxCell>
        <mxCell id="EHueAm8V6OURwo8DUmdf-34" value="节点1" style="rounded=1;whiteSpace=wrap;html=1;fillColor=#fff2cc;strokeColor=#d6b656;fontSize=14;fontStyle=1" vertex="1" parent="1">
          <mxGeometry x="390" y="740" width="160" height="40" as="geometry" />
        </mxCell>
        <mxCell id="EHueAm8V6OURwo8DUmdf-35" value="表A哈希值=1的数据 JOIN 表B哈希值=1的数据" style="rounded=1;whiteSpace=wrap;html=1;fillColor=#fff2cc;strokeColor=#d6b656;fontSize=12;fontStyle=1" vertex="1" parent="1">
          <mxGeometry x="340" y="790" width="260" height="40" as="geometry" />
        </mxCell>
        <mxCell id="EHueAm8V6OURwo8DUmdf-36" value="Join结果1" style="shape=document;whiteSpace=wrap;html=1;boundedLbl=1;fillColor=#fff2cc;strokeColor=#d6b656;fontSize=12;fontStyle=1" vertex="1" parent="1">
          <mxGeometry x="415" y="840" width="100" height="40" as="geometry" />
        </mxCell>
        <mxCell id="EHueAm8V6OURwo8DUmdf-37" value="节点2" style="rounded=1;whiteSpace=wrap;html=1;fillColor=#fff2cc;strokeColor=#d6b656;fontSize=14;fontStyle=1" vertex="1" parent="1">
          <mxGeometry x="100" y="740" width="160" height="40" as="geometry" />
        </mxCell>
        <mxCell id="EHueAm8V6OURwo8DUmdf-38" value="表A哈希值=2的数据 JOIN 表B哈希值=2的数据" style="rounded=1;whiteSpace=wrap;html=1;fillColor=#fff2cc;strokeColor=#d6b656;fontSize=12;fontStyle=1" vertex="1" parent="1">
          <mxGeometry x="50" y="790" width="260" height="40" as="geometry" />
        </mxCell>
        <mxCell id="EHueAm8V6OURwo8DUmdf-39" value="Join结果2" style="shape=document;whiteSpace=wrap;html=1;boundedLbl=1;fillColor=#fff2cc;strokeColor=#d6b656;fontSize=12;fontStyle=1" vertex="1" parent="1">
          <mxGeometry x="130" y="850" width="100" height="40" as="geometry" />
        </mxCell>
        <mxCell id="EHueAm8V6OURwo8DUmdf-40" value="节点3" style="rounded=1;whiteSpace=wrap;html=1;fillColor=#fff2cc;strokeColor=#d6b656;fontSize=14;fontStyle=1" vertex="1" parent="1">
          <mxGeometry x="670" y="730" width="160" height="40" as="geometry" />
        </mxCell>
        <mxCell id="EHueAm8V6OURwo8DUmdf-41" value="表A哈希值=3的数据 JOIN 表B哈希值=3的数据" style="rounded=1;whiteSpace=wrap;html=1;fillColor=#fff2cc;strokeColor=#d6b656;fontSize=12;fontStyle=1" vertex="1" parent="1">
          <mxGeometry x="620" y="790" width="260" height="40" as="geometry" />
        </mxCell>
        <mxCell id="EHueAm8V6OURwo8DUmdf-42" value="Join结果3" style="shape=document;whiteSpace=wrap;html=1;boundedLbl=1;fillColor=#fff2cc;strokeColor=#d6b656;fontSize=12;fontStyle=1" vertex="1" parent="1">
          <mxGeometry x="700" y="850" width="100" height="40" as="geometry" />
        </mxCell>
        <mxCell id="EHueAm8V6OURwo8DUmdf-43" value="" style="endArrow=classic;html=1;rounded=1;exitX=0.5;exitY=1;exitDx=0;exitDy=0;entryX=0.5;entryY=0;entryDx=0;entryDy=0;jumpStyle=arc;jumpSize=6;" edge="1" source="EHueAm8V6OURwo8DUmdf-34" target="EHueAm8V6OURwo8DUmdf-35" parent="1">
          <mxGeometry width="50" height="50" relative="1" as="geometry">
            <mxPoint x="400" y="780" as="sourcePoint" />
            <mxPoint x="450" y="730" as="targetPoint" />
          </mxGeometry>
        </mxCell>
        <mxCell id="EHueAm8V6OURwo8DUmdf-44" value="" style="endArrow=classic;html=1;rounded=1;exitX=0.5;exitY=1;exitDx=0;exitDy=0;entryX=0.5;entryY=0;entryDx=0;entryDy=0;jumpStyle=arc;jumpSize=6;" edge="1" source="EHueAm8V6OURwo8DUmdf-35" target="EHueAm8V6OURwo8DUmdf-36" parent="1">
          <mxGeometry width="50" height="50" relative="1" as="geometry">
            <mxPoint x="440" y="790" as="sourcePoint" />
            <mxPoint x="440" y="800" as="targetPoint" />
          </mxGeometry>
        </mxCell>
        <mxCell id="EHueAm8V6OURwo8DUmdf-45" value="" style="endArrow=classic;html=1;rounded=1;exitX=0.5;exitY=1;exitDx=0;exitDy=0;entryX=0.5;entryY=0;entryDx=0;entryDy=0;jumpStyle=arc;jumpSize=6;" edge="1" source="EHueAm8V6OURwo8DUmdf-37" target="EHueAm8V6OURwo8DUmdf-38" parent="1">
          <mxGeometry width="50" height="50" relative="1" as="geometry">
            <mxPoint x="220" y="780" as="sourcePoint" />
            <mxPoint x="270" y="730" as="targetPoint" />
          </mxGeometry>
        </mxCell>
        <mxCell id="EHueAm8V6OURwo8DUmdf-46" value="" style="endArrow=classic;html=1;rounded=1;exitX=0.5;exitY=1;exitDx=0;exitDy=0;entryX=0.5;entryY=0;entryDx=0;entryDy=0;jumpStyle=arc;jumpSize=6;" edge="1" source="EHueAm8V6OURwo8DUmdf-38" target="EHueAm8V6OURwo8DUmdf-39" parent="1">
          <mxGeometry width="50" height="50" relative="1" as="geometry">
            <mxPoint x="220" y="790" as="sourcePoint" />
            <mxPoint x="220" y="800" as="targetPoint" />
          </mxGeometry>
        </mxCell>
        <mxCell id="EHueAm8V6OURwo8DUmdf-47" value="" style="endArrow=classic;html=1;rounded=1;exitX=0.5;exitY=1;exitDx=0;exitDy=0;entryX=0.5;entryY=0;entryDx=0;entryDy=0;jumpStyle=arc;jumpSize=6;" edge="1" source="EHueAm8V6OURwo8DUmdf-40" target="EHueAm8V6OURwo8DUmdf-41" parent="1">
          <mxGeometry width="50" height="50" relative="1" as="geometry">
            <mxPoint x="660" y="780" as="sourcePoint" />
            <mxPoint x="710" y="730" as="targetPoint" />
          </mxGeometry>
        </mxCell>
        <mxCell id="EHueAm8V6OURwo8DUmdf-48" value="" style="endArrow=classic;html=1;rounded=1;exitX=0.5;exitY=1;exitDx=0;exitDy=0;entryX=0.5;entryY=0;entryDx=0;entryDy=0;jumpStyle=arc;jumpSize=6;" edge="1" source="EHueAm8V6OURwo8DUmdf-41" target="EHueAm8V6OURwo8DUmdf-42" parent="1">
          <mxGeometry width="50" height="50" relative="1" as="geometry">
            <mxPoint x="660" y="790" as="sourcePoint" />
            <mxPoint x="660" y="800" as="targetPoint" />
          </mxGeometry>
        </mxCell>
        <mxCell id="EHueAm8V6OURwo8DUmdf-49" value="结果合并" style="text;html=1;strokeColor=none;fillColor=none;align=center;verticalAlign=middle;whiteSpace=wrap;rounded=0;fontSize=18;fontStyle=1" vertex="1" parent="1">
          <mxGeometry x="130" y="900" width="590" height="30" as="geometry" />
        </mxCell>
        <mxCell id="EHueAm8V6OURwo8DUmdf-50" value="合并所有节点的Join结果" style="rounded=1;whiteSpace=wrap;html=1;fillColor=#e1d5e7;strokeColor=#9673a6;fontSize=14;fontStyle=1" vertex="1" parent="1">
          <mxGeometry x="350" y="950" width="230" height="40" as="geometry" />
        </mxCell>
        <mxCell id="EHueAm8V6OURwo8DUmdf-51" value="最终Join结果" style="shape=document;whiteSpace=wrap;html=1;boundedLbl=1;fillColor=#e1d5e7;strokeColor=#9673a6;fontSize=14;fontStyle=1" vertex="1" parent="1">
          <mxGeometry x="385" y="1010" width="160" height="60" as="geometry" />
        </mxCell>
        <mxCell id="EHueAm8V6OURwo8DUmdf-52" value="" style="endArrow=classic;html=1;rounded=1;exitX=0.5;exitY=1;exitDx=0;exitDy=0;entryX=0;entryY=0.5;entryDx=0;entryDy=0;jumpStyle=arc;jumpSize=6;edgeStyle=orthogonalEdgeStyle;" edge="1" source="EHueAm8V6OURwo8DUmdf-39" target="EHueAm8V6OURwo8DUmdf-50" parent="1">
          <mxGeometry width="50" height="50" relative="1" as="geometry">
            <mxPoint x="400" y="850" as="sourcePoint" />
            <mxPoint x="450" y="800" as="targetPoint" />
            <Array as="points">
              <mxPoint x="210" y="890" />
              <mxPoint x="280" y="890" />
              <mxPoint x="280" y="960" />
            </Array>
          </mxGeometry>
        </mxCell>
        <mxCell id="EHueAm8V6OURwo8DUmdf-53" value="" style="endArrow=classic;html=1;rounded=1;exitX=0.5;exitY=1;exitDx=0;exitDy=0;entryX=0.5;entryY=0;entryDx=0;entryDy=0;jumpStyle=arc;jumpSize=6;" edge="1" source="EHueAm8V6OURwo8DUmdf-36" target="EHueAm8V6OURwo8DUmdf-50" parent="1">
          <mxGeometry width="50" height="50" relative="1" as="geometry">
            <mxPoint x="220" y="890" as="sourcePoint" />
            <mxPoint x="325" y="970" as="targetPoint" />
            <Array as="points">
              <mxPoint x="460" y="920" />
            </Array>
          </mxGeometry>
        </mxCell>
        <mxCell id="EHueAm8V6OURwo8DUmdf-54" value="" style="endArrow=classic;html=1;rounded=1;exitX=0.5;exitY=1;exitDx=0;exitDy=0;entryX=1;entryY=0.5;entryDx=0;entryDy=0;jumpStyle=arc;jumpSize=6;edgeStyle=orthogonalEdgeStyle;" edge="1" source="EHueAm8V6OURwo8DUmdf-42" target="EHueAm8V6OURwo8DUmdf-50" parent="1">
          <mxGeometry width="50" height="50" relative="1" as="geometry">
            <mxPoint x="650" y="890" as="sourcePoint" />
            <mxPoint x="550" y="960" as="targetPoint" />
            <Array as="points">
              <mxPoint x="650" y="890" />
              <mxPoint x="580" y="890" />
              <mxPoint x="580" y="960" />
            </Array>
          </mxGeometry>
        </mxCell>
        <mxCell id="EHueAm8V6OURwo8DUmdf-55" value="" style="endArrow=classic;html=1;rounded=1;exitX=0.5;exitY=1;exitDx=0;exitDy=0;entryX=0.5;entryY=0;entryDx=0;entryDy=0;jumpStyle=arc;jumpSize=6;" edge="1" source="EHueAm8V6OURwo8DUmdf-50" target="EHueAm8V6OURwo8DUmdf-51" parent="1">
          <mxGeometry width="50" height="50" relative="1" as="geometry">
            <mxPoint x="430" y="990" as="sourcePoint" />
            <mxPoint x="429.5" y="1010" as="targetPoint" />
          </mxGeometry>
        </mxCell>
        <mxCell id="EHueAm8V6OURwo8DUmdf-56" value="StarRocks与Spark的Shuffle Join对比" style="text;html=1;strokeColor=none;fillColor=none;align=center;verticalAlign=middle;whiteSpace=wrap;rounded=0;fontSize=18;fontStyle=1" vertex="1" parent="1">
          <mxGeometry x="130" y="1090" width="590" height="30" as="geometry" />
        </mxCell>
        <mxCell id="EHueAm8V6OURwo8DUmdf-57" value="&lt;table border=&quot;1&quot; width=&quot;100%&quot; style=&quot;width:100%;border-collapse:collapse;&quot;&gt;&lt;tr style=&quot;background-color:#f0f0f0;&quot;&gt;&lt;th style=&quot;padding:8px;&quot;&gt;特性&lt;/th&gt;&lt;th style=&quot;padding:8px;&quot;&gt;StarRocks Shuffle Join&lt;/th&gt;&lt;th style=&quot;padding:8px;&quot;&gt;Spark Shuffle Join&lt;/th&gt;&lt;/tr&gt;&lt;tr&gt;&lt;td style=&quot;padding:8px;&quot;&gt;执行模型&lt;/td&gt;&lt;td style=&quot;padding:8px;&quot;&gt;采用MPP并行执行模型，数据流水线处理&lt;/td&gt;&lt;td style=&quot;padding:8px;&quot;&gt;基于DAG执行模型，可能在Shuffle阶段产生阻塞&lt;/td&gt;&lt;/tr&gt;&lt;tr&gt;&lt;td style=&quot;padding:8px;&quot;&gt;分区策略&lt;/td&gt;&lt;td style=&quot;padding:8px;&quot;&gt;智能分区策略，可基于数据分布特征动态调整分区数&lt;/td&gt;&lt;td style=&quot;padding:8px;&quot;&gt;通常使用固定的分区策略，取决于Spark配置参数&lt;/td&gt;&lt;/tr&gt;&lt;tr&gt;&lt;td style=&quot;padding:8px;&quot;&gt;Runtime Filter&lt;/td&gt;&lt;td style=&quot;padding:8px;&quot;&gt;支持Runtime Filter技术，可在Shuffle阶段前过滤数据&lt;/td&gt;&lt;td style=&quot;padding:8px;&quot;&gt;不支持或支持有限的Runtime Filter功能&lt;/td&gt;&lt;/tr&gt;&lt;tr&gt;&lt;td style=&quot;padding:8px;&quot;&gt;Join算法&lt;/td&gt;&lt;td style=&quot;padding:8px;&quot;&gt;在本地节点采用高效的向量化哈希Join算法&lt;/td&gt;&lt;td style=&quot;padding:8px;&quot;&gt;通常使用Sort-Merge Join或基本哈希Join算法&lt;/td&gt;&lt;/tr&gt;&lt;tr&gt;&lt;td style=&quot;padding:8px;&quot;&gt;内存管理&lt;/td&gt;&lt;td style=&quot;padding:8px;&quot;&gt;细粒度内存管理，可以高效利用可用内存&lt;/td&gt;&lt;td style=&quot;padding:8px;&quot;&gt;基于JVM的内存管理，在大规模数据处理时可能存在GC开销&lt;/td&gt;&lt;/tr&gt;&lt;tr&gt;&lt;td style=&quot;padding:8px;&quot;&gt;性能优化&lt;/td&gt;&lt;td style=&quot;padding:8px;&quot;&gt;针对OLAP场景优化，支持SIMD指令加速，列式存储&lt;/td&gt;&lt;td style=&quot;padding:8px;&quot;&gt;通用大数据处理框架，优化不及专门OLAP引擎&lt;/td&gt;&lt;/tr&gt;&lt;/table&gt;" style="text;html=1;strokeColor=none;fillColor=none;align=center;verticalAlign=middle;whiteSpace=wrap;rounded=0;fontSize=12;" vertex="1" parent="1">
          <mxGeometry x="130" y="1130" width="590" height="220" as="geometry" />
        </mxCell>
        <mxCell id="EHueAm8V6OURwo8DUmdf-58" value="结论：StarRocks的Shuffle Join在OLAP场景下通常比Spark更高效，主要得益于其专门针对分析查询的优化、MPP执行模型、Runtime Filter和向量化执行技术。" style="text;html=1;strokeColor=none;fillColor=none;align=center;verticalAlign=middle;whiteSpace=wrap;rounded=0;fontSize=14;fontStyle=1" vertex="1" parent="1">
          <mxGeometry x="130" y="1410" width="590" height="50" as="geometry" />
        </mxCell>
      </root>
    </mxGraphModel>
  </diagram>
</mxfile>
